<svg xmlns="http://www.w3.org/2000/svg" width="1000" height="630" viewBox="0 0 1000 630" font-family="-apple-system, system-ui, sans-serif">
  <defs>
    <linearGradient id="bg" x1="0" y1="0" x2="1" y2="1">
      <stop offset="0" stop-color="#e9eef3"/>
      <stop offset="1" stop-color="#cdd7e0"/>
    </linearGradient>
  </defs>
  <rect width="1000" height="630" fill="url(#bg)"/>
  <rect x="24" y="24" width="952" height="582" rx="22" fill="#ffffff" stroke="#b9c4cf" stroke-width="2"/>
  <!-- header band -->
  <rect x="24" y="24" width="952" height="92" rx="22" fill="#5b6b7a"/>
  <rect x="24" y="80" width="952" height="36" fill="#5b6b7a"/>
  <text x="56" y="84" font-size="34" font-weight="700" fill="#ffffff">SAMPLE 会員証</text>
  <text x="944" y="84" font-size="22" fill="#cfd8e0" text-anchor="end">サンプル・架空のデータ</text>

  <!-- photo placeholder -->
  <rect x="56" y="156" width="200" height="248" rx="10" fill="#dfe6ec" stroke="#b9c4cf" stroke-width="2"/>
  <circle cx="156" cy="248" r="52" fill="#b9c4cf"/>
  <path d="M84 392c0-44 32-72 72-72s72 28 72 72z" fill="#b9c4cf"/>

  <!-- fields -->
  <g fill="#27313b">
    <text x="300" y="190" font-size="22" fill="#7a8794">氏名</text>
    <text x="300" y="232" font-size="38" font-weight="700">山田 花子</text>

    <text x="300" y="296" font-size="22" fill="#7a8794">住所</text>
    <text x="300" y="334" font-size="30">東京都千代田区架空町 1-2-3</text>

    <text x="300" y="396" font-size="22" fill="#7a8794">会員番号</text>
    <text x="300" y="436" font-size="34" font-weight="700" font-family="ui-monospace, monospace">1234 5678 9012</text>
  </g>

  <g fill="#27313b">
    <text x="56" y="468" font-size="22" fill="#7a8794">生年月日</text>
    <text x="56" y="506" font-size="30">2000年 1月 1日</text>

    <text x="520" y="468" font-size="22" fill="#7a8794">電話</text>
    <text x="520" y="506" font-size="30" font-family="ui-monospace, monospace">090-0000-0000</text>
  </g>

  <text x="500" y="576" font-size="20" fill="#9aa6b2" text-anchor="middle">この画像はサンプルです。隠したい所を指でなぞってください。</text>
</svg>
